<svg width="72" height="20" viewBox="0 0 72 20" fill="none" xmlns="http://www.w3.org/2000/svg">
<path d="M3.36 19.76C3.18667 19.7067 2.99333 19.62 2.78 19.5C2.56667 19.3933 2.46 19.2333 2.46 19.02C2.46 18.94 2.48 18.86 2.52 18.78L2.56 18.7C2.36 18.4867 2.19333 18.2533 2.06 18C1.92667 17.76 1.86 17.5333 1.86 17.32C1.86 17.2267 1.86667 17.16 1.88 17.12C2.24 16.5867 2.75333 16.0333 3.42 15.46C4.08667 14.8867 4.86 14.34 5.74 13.82C6.63333 13.3 7.57333 12.86 8.56 12.5C8.77333 12.22 8.96667 11.9467 9.14 11.68C9.31333 11.4133 9.48667 11.1533 9.66 10.9C9.64667 10.9 9.67333 10.8533 9.74 10.76C9.80667 10.6533 9.87333 10.5467 9.94 10.44C10.0067 10.3333 10.0333 10.2867 10.02 10.3C10.0067 10.3 9.95333 10.3667 9.86 10.5C9.78 10.62 9.69333 10.74 9.6 10.86C9.52 10.98 9.47333 11.0467 9.46 11.06C8.76667 11.62 8.01333 12.14 7.2 12.62C6.4 13.0867 5.63333 13.42 4.9 13.62C4.52667 13.7133 4.15333 13.78 3.78 13.82C3.40667 13.86 3.06667 13.88 2.76 13.88C2.50667 13.88 2.3 13.8733 2.14 13.86C1.98 13.8333 1.9 13.8133 1.9 13.8C1.9 13.7467 2.19333 13.72 2.78 13.72C1.9 13.5333 1.27333 13.2133 0.9 12.76C0.54 12.2933 0.36 11.7533 0.36 11.14C0.36 10.6333 0.46 10.1 0.66 9.54C0.873333 8.96667 1.14667 8.41333 1.48 7.88C2.18667 6.74667 2.94667 5.84 3.76 5.16C4.58667 4.48 5.5 3.86 6.5 3.3C6.24667 3.42 5.98667 3.54667 5.72 3.68C5.46667 3.8 5.22667 3.92667 5 4.06C4.90667 4.11333 4.82667 4.14 4.76 4.14C4.70667 4.14 4.72667 4.11333 4.82 4.06C5.26 3.80667 5.78 3.54 6.38 3.26C6.98 2.96667 7.50667 2.71333 7.96 2.5C9.10667 1.95333 10.2667 1.52667 11.44 1.22C12.6133 0.913332 13.64 0.759999 14.52 0.759999C15.04 0.759999 15.48 0.819999 15.84 0.939999C16 1.19333 16.1133 1.42667 16.18 1.64C16.2467 1.84 16.28 2.02 16.28 2.18C16.28 2.31333 16.26 2.42667 16.22 2.52C16.1933 2.61333 16.1667 2.69333 16.14 2.76C16.2067 2.72 16.2667 2.65333 16.32 2.56C16.3867 2.46667 16.44 2.37333 16.48 2.28C16.52 2.18667 16.54 2.10667 16.54 2.04C16.5533 1.97333 16.5733 1.90667 16.6 1.84C16.6267 1.8 16.7 1.82667 16.82 1.92C16.94 2.01333 17.0533 2.13333 17.16 2.28C17.28 2.42667 17.3333 2.56 17.32 2.68C17.3067 2.90667 17.1933 3.18 16.98 3.5C16.78 3.82 16.5267 4.13333 16.22 4.44C15.9267 4.73333 15.6267 4.98 15.32 5.18C15.0133 5.36667 14.7467 5.44667 14.52 5.42C14.1867 5.51333 13.8867 5.59333 13.62 5.66C13.3667 5.71333 13.18 5.74 13.06 5.74C12.9533 5.74 12.9 5.71333 12.9 5.66C12.9 5.58 13.0867 5.40667 13.46 5.14C14.02 4.76667 14.5 4.38667 14.9 4C15.3933 3.52 15.64 3.14667 15.64 2.88C15.64 2.70667 15.56 2.58 15.4 2.5C15.2533 2.42 15.0467 2.38 14.78 2.38C14.7267 2.38 14.66 2.38667 14.58 2.4C14.5133 2.4 14.44 2.40667 14.36 2.42C13.5867 2.52667 12.7533 2.7 11.86 2.94C10.98 3.18 10.08 3.5 9.16 3.9C8.24 4.28667 7.35333 4.76 6.5 5.32C5.66 5.86667 4.89333 6.50667 4.2 7.24C3.50667 7.96 2.94 8.78667 2.5 9.72C2.32667 10.08 2.19333 10.4267 2.1 10.76C2.00667 11.0933 1.96 11.3933 1.96 11.66C1.96 12.0333 2.06 12.3333 2.26 12.56C2.47333 12.7733 2.81333 12.88 3.28 12.88C3.64 12.88 4.08 12.8133 4.6 12.68C5.13333 12.5333 5.76 12.2933 6.48 11.96C7.01333 11.72 7.55333 11.3933 8.1 10.98C8.64667 10.5667 9.16 10.1333 9.64 9.68C10.12 9.22667 10.5333 8.81333 10.88 8.44C11.24 8.05333 11.4867 7.77333 11.62 7.6C11.7667 7.56 11.96 7.58667 12.2 7.68C12.4533 7.77333 12.6733 7.88667 12.86 8.02C13.06 8.15333 13.14 8.26 13.1 8.34C13.1 8.34 12.9933 8.52 12.78 8.88C12.58 9.24 12.2867 9.72667 11.9 10.34C11.5267 10.94 11.08 11.6 10.56 12.32L11.08 12.28H11.14C11.3267 12.28 11.42 12.34 11.42 12.46C11.42 12.5667 11.3333 12.64 11.16 12.68C11 12.7333 10.82 12.8 10.62 12.88C10.42 12.9467 10.22 13.0133 10.02 13.08L9.8 13.34L9.9 13.2L9.92 13.16L8.54 14.74C8.34 14.9667 8.08667 15.24 7.78 15.56C7.47333 15.88 7.14667 16.2067 6.8 16.54C6.46667 16.8733 6.15333 17.18 5.86 17.46C5.56667 17.74 5.33333 17.9667 5.16 18.14C4.98667 18.3133 4.91333 18.3933 4.94 18.38C5.64667 17.8467 6.32667 17.2467 6.98 16.58C7.63333 15.9267 8.28 15.2 8.92 14.4C9.01333 14.2667 9.12667 14.1267 9.26 13.98C9.39333 13.8333 9.52 13.6867 9.64 13.54C9.49333 13.7533 9.30667 14.0133 9.08 14.32C8.85333 14.6267 8.58667 14.9667 8.28 15.34C8.09333 15.5667 7.84 15.8333 7.52 16.14C7.2 16.4467 6.86 16.7533 6.5 17.06C6.15333 17.38 5.83333 17.66 5.54 17.9C5.26 18.14 5.06 18.3 4.94 18.38C5.03333 18.38 5.10667 18.4 5.16 18.44C5.21333 18.4667 5.16667 18.5533 5.02 18.7C4.87333 18.8467 4.68 19.0067 4.44 19.18C4.21333 19.3533 3.99333 19.5 3.78 19.62C3.58 19.74 3.44 19.7867 3.36 19.76ZM6.72 3.26C7.58667 2.86 8.50667 2.5 9.48 2.18C10.4667 1.86 11.4133 1.61333 12.32 1.44C13.2267 1.25333 13.9933 1.16 14.62 1.16C14.8067 1.16 14.9 1.14667 14.9 1.12C14.9 1.09333 14.8533 1.07333 14.76 1.06C14.68 1.03333 14.5933 1.02667 14.5 1.04C14.1133 1.06667 13.5867 1.12667 12.92 1.22C12.2667 1.3 11.5467 1.43333 10.76 1.62C9.97333 1.80667 9.18667 2.07333 8.4 2.42C8.14667 2.54 7.86667 2.67333 7.56 2.82C7.25333 2.96667 6.97333 3.11333 6.72 3.26ZM3.38 18.88C3.74 18.52 4.16 18.0733 4.64 17.54C5.12 17.02 5.60667 16.48 6.1 15.92C6.59333 15.36 7.03333 14.86 7.42 14.42C7.59333 14.2333 7.76667 14.04 7.94 13.84C8.12667 13.64 8.28667 13.4333 8.42 13.22C8.18 13.5133 8.02 13.6933 7.94 13.76C7.86 13.8133 7.81333 13.84 7.8 13.84C7.57333 13.9333 7.26667 14.1067 6.88 14.36C6.50667 14.6133 6.10667 14.9133 5.68 15.26C5.25333 15.62 4.85333 15.9933 4.48 16.38C4.10667 16.78 3.8 17.16 3.56 17.52C3.32 17.88 3.2 18.1933 3.2 18.46C3.2 18.62 3.26 18.76 3.38 18.88ZM17.5995 15.2C17.5995 15.1333 17.6462 15.04 17.7395 14.92C17.8329 14.8133 17.9529 14.68 18.0995 14.52C18.4329 14.1467 18.6995 13.8333 18.8995 13.58C19.0995 13.3133 19.2195 13.1467 19.2595 13.08C19.1129 13.24 18.9395 13.4467 18.7395 13.7C18.5529 13.94 18.3329 14.1867 18.0795 14.44C18.2395 14.2533 18.3929 14.0533 18.5395 13.84C18.6862 13.6267 18.8062 13.4467 18.8995 13.3C18.9929 13.1533 19.0329 13.08 19.0195 13.08L15.8995 13.28C15.8729 13.3067 15.8595 13.3267 15.8595 13.34C15.9129 13.34 15.9995 13.34 16.1195 13.34C16.2395 13.3267 16.3395 13.32 16.4195 13.32C16.5129 13.3067 16.5195 13.3067 16.4395 13.32L15.8195 13.38C15.5929 13.6867 15.1795 13.9533 14.5795 14.18C14.3662 14.14 14.1995 14.06 14.0795 13.94C13.9729 13.8067 13.8929 13.66 13.8395 13.5C13.7862 13.5 13.7329 13.5067 13.6795 13.52C13.6395 13.52 13.5995 13.52 13.5595 13.52C13.4129 13.52 13.1729 13.54 12.8395 13.58C12.5195 13.62 12.1995 13.66 11.8795 13.7C11.5595 13.7267 11.3462 13.7467 11.2395 13.76C11.2129 13.76 11.1929 13.7667 11.1795 13.78C11.1529 13.78 11.1262 13.78 11.0995 13.78C10.9395 13.78 10.8595 13.7333 10.8595 13.64C10.8595 13.5467 10.9595 13.44 11.1595 13.32C11.3462 13.1867 11.5662 13.1 11.8195 13.06C11.9262 13.0333 12.1662 13.0067 12.5395 12.98C12.9262 12.94 13.3462 12.8933 13.7995 12.84C13.7995 12.7467 13.8062 12.66 13.8195 12.58C13.8462 12.5 13.8662 12.4333 13.8795 12.38C13.9729 12.0733 14.1929 11.6333 14.5395 11.06C14.8995 10.4733 15.3262 9.82 15.8195 9.1C16.3262 8.38 16.8462 7.65333 17.3795 6.92C17.9129 6.18667 18.4195 5.50667 18.8995 4.88C19.3795 4.24 19.7662 3.72 20.0595 3.32L16.7595 3.68C16.6662 3.73333 16.5795 3.76 16.4995 3.76C16.4062 3.76 16.3329 3.71333 16.2795 3.62C16.2262 3.51333 16.1995 3.39333 16.1995 3.26C16.1995 3.11333 16.2195 2.96 16.2595 2.8C16.3129 2.62667 16.3729 2.46667 16.4395 2.32H16.4795C16.4795 2.09333 16.5929 1.98 16.8195 1.98C16.9262 1.98 17.0395 1.99333 17.1595 2.02C17.2929 2.04667 17.4262 2.06 17.5595 2.06C17.7862 2.04667 18.0262 2.02 18.2795 1.98C18.5329 1.92667 18.6795 1.86 18.7195 1.78C18.7729 1.7 18.8129 1.66 18.8395 1.66C18.8795 1.66 18.9195 1.72667 18.9595 1.86C18.9729 1.88667 18.9795 1.92667 18.9795 1.98C18.9795 2.07333 18.9462 2.17333 18.8795 2.28L20.4595 2.22C20.4729 2.18 20.4795 2.14 20.4795 2.1C20.4662 2.06 20.4529 2.02 20.4395 1.98C20.4262 1.92667 20.4195 1.88 20.4195 1.84C20.4195 1.73333 20.4795 1.68 20.5995 1.68C20.6262 1.68 20.6929 1.69333 20.7995 1.72C20.9062 1.76 21.0395 1.82 21.1995 1.9C21.3595 1.96667 21.5195 2.05333 21.6795 2.16H22.0195L22.3195 2.14C23.1595 2.08667 23.8062 2.01333 24.2595 1.92C24.7129 1.82667 25.0329 1.73333 25.2195 1.64C25.4195 1.54667 25.5395 1.46667 25.5795 1.4C25.6195 1.32 25.6529 1.27333 25.6795 1.26C25.7329 1.23333 25.7662 1.22 25.7795 1.22C25.8195 1.22 25.8395 1.24 25.8395 1.28C25.8395 1.36 25.7929 1.44667 25.6995 1.54C25.6595 1.59333 25.6795 1.65333 25.7595 1.72C25.8395 1.78667 25.9262 1.86 26.0195 1.94C26.1262 2.00667 26.1795 2.08 26.1795 2.16C26.1795 2.24 26.0929 2.32667 25.9195 2.42C25.7595 2.5 25.4662 2.58667 25.0395 2.68C24.6129 2.76 23.9929 2.85333 23.1795 2.96C23.1662 2.96 23.0662 3.04667 22.8795 3.22C22.7062 3.38 22.4929 3.58667 22.2395 3.84C21.9995 4.09333 21.7529 4.34667 21.4995 4.6C21.2595 4.84 21.0529 5.04667 20.8795 5.22C20.7062 5.39333 20.6062 5.48 20.5795 5.48C20.5662 5.48 20.6262 5.4 20.7595 5.24C20.9062 5.06667 21.0862 4.86 21.2995 4.62C21.5129 4.36667 21.7262 4.12 21.9395 3.88C22.1662 3.62667 22.3462 3.42 22.4795 3.26C22.6262 3.1 22.6929 3.02 22.6795 3.02L22.3795 3.04C22.3795 3.10667 22.3729 3.16 22.3595 3.2C22.1995 3.37333 21.9462 3.66 21.5995 4.06C21.2662 4.44667 20.8729 4.90667 20.4195 5.44C19.9662 5.97333 19.4929 6.54 18.9995 7.14C18.5062 7.72667 18.0195 8.30667 17.5395 8.88C17.0729 9.45333 16.6462 9.98 16.2595 10.46C15.8862 10.9267 15.5862 11.3067 15.3595 11.6C15.2529 11.7333 15.1662 11.88 15.0995 12.04C15.0462 12.1867 15.0129 12.2733 14.9995 12.3C15.3729 12.3533 15.6395 12.46 15.7995 12.62L16.0195 12.6C16.4995 12.56 17.0862 12.4533 17.7795 12.28C18.4729 12.1067 19.1862 12.02 19.9195 12.02H19.9395C20.0062 12.02 20.0729 12.0467 20.1395 12.1C20.2195 12.1533 20.2729 12.18 20.2995 12.18C20.4062 12.18 20.4929 12.2533 20.5595 12.4C20.6262 12.5467 20.6595 12.6533 20.6595 12.72C20.6595 12.7733 20.5595 12.8933 20.3595 13.08C20.1729 13.2533 19.9329 13.46 19.6395 13.7C19.3462 13.94 19.0462 14.1733 18.7395 14.4C18.4462 14.6267 18.1862 14.8133 17.9595 14.96C17.7462 15.12 17.6262 15.2 17.5995 15.2ZM26.237 1.88C26.717 1.77333 27.2104 1.69333 27.717 1.64C28.237 1.57333 28.7637 1.53333 29.297 1.52C28.7504 1.53333 28.2104 1.57333 27.677 1.64C27.157 1.70667 26.677 1.78667 26.237 1.88ZM33.017 1.86C32.5504 1.76667 32.077 1.69333 31.597 1.64C31.1304 1.57333 30.6704 1.53333 30.217 1.52C30.7104 1.53333 31.1904 1.56667 31.657 1.62C32.137 1.67333 32.5904 1.75333 33.017 1.86ZM25.837 14.38C25.5037 14.3533 25.1837 14.1933 24.877 13.9C24.5704 13.5933 24.417 13.2133 24.417 12.76C24.417 12.32 24.557 11.8067 24.837 11.22C25.117 10.6333 25.4904 10.0067 25.957 9.34C26.4237 8.66 26.9304 7.98667 27.477 7.32C28.037 6.64 28.597 6 29.157 5.4C29.7304 4.78667 30.257 4.24667 30.737 3.78C31.217 3.31333 31.6037 2.95333 31.897 2.7C31.8437 2.75333 31.7237 2.84667 31.537 2.98C31.3504 3.11333 31.1637 3.26 30.977 3.42C31.0304 3.35333 31.157 3.23333 31.357 3.06C31.5704 2.88667 31.7437 2.74667 31.877 2.64C31.157 2.64 30.3704 2.66667 29.517 2.72C28.677 2.76 27.857 2.87333 27.057 3.06C26.9237 3.08667 26.697 3.15333 26.377 3.26C26.057 3.36667 25.6904 3.51333 25.277 3.7C24.877 3.87333 24.477 4.07333 24.077 4.3C23.677 4.51333 23.3304 4.75333 23.037 5.02C22.757 5.28667 22.577 5.56 22.497 5.84C22.5504 5.94667 22.577 6.04667 22.577 6.14C22.577 6.32667 22.4904 6.42 22.317 6.42C22.157 6.42 21.977 6.32667 21.777 6.14C21.5904 5.94 21.497 5.67333 21.497 5.34C21.497 5.16667 21.5237 5 21.577 4.84C21.7237 4.4 21.9637 4.02 22.297 3.7L22.257 3.72C22.2037 3.74667 22.1837 3.75333 22.197 3.74C22.2237 3.72667 22.2637 3.7 22.317 3.66L22.297 3.7C22.897 3.36667 23.5504 3.04 24.257 2.72C24.977 2.4 25.7837 2.13333 26.677 1.92C27.5704 1.70667 28.5704 1.6 29.677 1.6C30.1837 1.6 30.717 1.62667 31.277 1.68C31.837 1.73333 32.4237 1.82 33.037 1.94C33.1037 1.95333 33.1904 1.96667 33.297 1.98C33.417 1.99333 33.497 2 33.537 2H33.557C33.557 1.98667 33.4037 1.94667 33.097 1.88C33.057 1.88 33.0304 1.87333 33.017 1.86C33.1904 1.75333 33.3304 1.68 33.437 1.64C33.5437 1.6 33.6437 1.58 33.737 1.58C33.8304 1.58 33.9904 1.59333 34.217 1.62C34.457 1.64667 34.6837 1.7 34.897 1.78C35.1104 1.86 35.2237 1.98 35.237 2.14C35.877 2.19333 36.497 2.3 37.097 2.46C37.7104 2.62 38.1637 2.78667 38.457 2.96C38.697 3.09333 38.817 3.23333 38.817 3.38C38.817 3.54 38.6904 3.6 38.437 3.56C38.197 3.52 37.8837 3.47333 37.497 3.42C37.1237 3.36667 36.7237 3.31333 36.297 3.26C35.8837 3.20667 35.4837 3.16667 35.097 3.14C34.7237 3.11333 34.417 3.11333 34.177 3.14C33.6437 3.52667 33.017 4.00667 32.297 4.58C31.577 5.15333 30.837 5.78667 30.077 6.48C29.3304 7.17333 28.637 7.90667 27.997 8.68C27.3704 9.45333 26.8637 10.2333 26.477 11.02C26.0904 11.8067 25.9104 12.5733 25.937 13.32C25.9504 13.5333 26.037 13.72 26.197 13.88C26.357 14.0267 26.437 14.14 26.437 14.22C26.437 14.2733 26.3904 14.3133 26.297 14.34C26.217 14.3667 26.0637 14.38 25.837 14.38ZM25.157 2.18C25.077 2.19333 25.0904 2.18667 25.197 2.16C25.317 2.13333 25.4504 2.1 25.597 2.06L26.057 1.92C26.0304 1.92 26.0437 1.92 26.097 1.92C26.1637 1.90667 26.2104 1.89333 26.237 1.88C26.157 1.90667 26.1037 1.92 26.077 1.92H26.057C26.1104 1.90667 26.1104 1.90667 26.057 1.92C26.017 1.93333 25.957 1.95333 25.877 1.98C25.797 1.99333 25.7037 2.02 25.597 2.06L25.157 2.18ZM22.317 3.66C22.6904 3.31333 23.1304 3.02 23.637 2.78C24.1437 2.54 24.6504 2.34 25.157 2.18C24.677 2.34 24.217 2.54 23.777 2.78C23.3504 3.00667 22.9437 3.25333 22.557 3.52L22.317 3.66ZM41.8195 14.36C41.7662 14.36 41.7395 14.3333 41.7395 14.28C41.7395 14.2267 41.7795 14.1333 41.8595 14C41.9662 13.7867 42.0195 13.62 42.0195 13.5C42.0195 13.3 41.9062 13.16 41.6795 13.08C41.4529 13 41.1395 12.96 40.7395 12.96C40.5395 12.96 40.3129 12.9733 40.0595 13C39.8195 13.0133 39.5529 13.0333 39.2595 13.06C38.8862 13.1 38.4595 13.1667 37.9795 13.26C37.4995 13.3533 37.0262 13.46 36.5595 13.58C36.1062 13.6867 35.7195 13.8 35.3995 13.92C35.5595 13.88 35.7729 13.8267 36.0395 13.76C36.3062 13.6933 36.5729 13.6267 36.8395 13.56C37.1195 13.4933 37.3395 13.4467 37.4995 13.42C37.5662 13.4067 37.6195 13.4 37.6595 13.4C37.7129 13.4 37.7262 13.4067 37.6995 13.42C37.5662 13.4467 37.3462 13.5 37.0395 13.58C36.7329 13.66 36.4129 13.7467 36.0795 13.84C35.7462 13.92 35.4529 13.9933 35.1995 14.06C34.9595 14.1267 34.8262 14.1667 34.7995 14.18C34.7462 14.1933 34.6995 14.2 34.6595 14.2C34.6195 14.2133 34.5862 14.22 34.5595 14.22C34.3729 14.22 34.2329 14.1467 34.1395 14C34.0595 13.8667 33.9862 13.76 33.9195 13.68C33.8395 13.6 33.8129 13.4867 33.8395 13.34C33.7862 13.34 33.7462 13.3467 33.7195 13.36C33.7195 13.3067 33.7129 13.2467 33.6995 13.18C33.6995 13.1133 33.6995 13.0533 33.6995 13C33.6995 12.88 33.7195 12.8067 33.7595 12.78C34.0395 12.34 34.3395 11.9133 34.6595 11.5C34.9795 11.0867 35.3129 10.6533 35.6595 10.2C36.6462 8.93333 37.6995 7.6 38.8195 6.2C39.9529 4.8 41.0329 3.45333 42.0595 2.16C42.0462 2.09333 42.0262 2.01333 41.9995 1.92C41.9729 1.81333 41.9595 1.71333 41.9595 1.62C41.9595 1.48667 41.9929 1.37333 42.0595 1.28C42.1262 1.18667 42.2462 1.14 42.4195 1.14C42.5662 1.14 42.7195 1.16667 42.8795 1.22C43.0395 1.28667 43.2262 1.39333 43.4395 1.54C43.6529 1.68667 43.8395 1.84 43.9995 2C44.1729 2.16 44.2595 2.31333 44.2595 2.46C44.2595 2.67333 44.0729 2.97333 43.6995 3.36C43.3395 3.73333 42.8995 4.19333 42.3795 4.74C42.0595 5.07333 41.6929 5.48 41.2795 5.96C40.8662 6.42667 40.4529 6.9 40.0395 7.38C39.6395 7.86 39.2862 8.28 38.9795 8.64C38.6862 8.98667 38.4995 9.20667 38.4195 9.3C38.4329 9.24667 38.5129 9.12667 38.6595 8.94C38.8195 8.74 38.9995 8.52 39.1995 8.28C39.4129 8.02667 39.5995 7.80667 39.7595 7.62C39.8262 7.55333 39.9262 7.43333 40.0595 7.26C40.1929 7.08667 40.3329 6.9 40.4795 6.7C40.6262 6.48667 40.7529 6.30667 40.8595 6.16C40.9662 6 41.0195 5.90667 41.0195 5.88C41.0195 5.88 41.0062 5.88667 40.9795 5.9C40.9662 5.91333 40.9329 5.95333 40.8795 6.02C40.8129 6.08667 40.6729 6.25333 40.4595 6.52C40.2595 6.78667 40.0262 7.08667 39.7595 7.42C39.5062 7.75333 39.2595 8.07333 39.0195 8.38C38.7929 8.67333 38.6129 8.89333 38.4795 9.04C37.9329 9.62667 37.4262 10.1933 36.9595 10.74C36.4929 11.2733 36.1062 11.7533 35.7995 12.18C35.8129 12.18 35.8262 12.18 35.8395 12.18C35.8529 12.1667 35.8662 12.16 35.8795 12.16C35.9995 12.1067 36.2195 12.0467 36.5395 11.98C36.8595 11.9133 37.2329 11.8467 37.6595 11.78C38.0862 11.7133 38.5129 11.6533 38.9395 11.6C39.3662 11.5467 39.7462 11.5067 40.0795 11.48C40.4262 11.44 40.6729 11.42 40.8195 11.42C41.0195 11.42 41.2529 11.44 41.5195 11.48C41.7862 11.5067 42.0395 11.5533 42.2795 11.62C42.5329 11.6733 42.7129 11.7533 42.8195 11.86C42.5795 11.7533 42.3195 11.6733 42.0395 11.62C41.7729 11.5667 41.4862 11.5333 41.1795 11.52C41.6462 11.56 42.0929 11.66 42.5195 11.82C42.7995 11.9133 42.9929 12.0333 43.0995 12.18C43.2195 12.3267 43.2795 12.48 43.2795 12.64C43.2795 12.8533 43.1995 13.08 43.0395 13.32C42.8929 13.5467 42.7129 13.76 42.4995 13.96C42.4462 14.0133 42.3395 14.0933 42.1795 14.2C42.0195 14.3067 41.8995 14.36 41.8195 14.36ZM36.0795 12.12C36.2795 12.08 36.5395 12.04 36.8595 12C37.1795 11.9467 37.4995 11.8933 37.8195 11.84C38.1529 11.7867 38.4195 11.74 38.6195 11.7C38.9262 11.6333 39.3062 11.58 39.7595 11.54C40.2129 11.5 40.6729 11.4933 41.1395 11.52C41.0595 11.5067 40.9795 11.5 40.8995 11.5C40.8195 11.5 40.7329 11.5 40.6395 11.5C40.1595 11.5 39.5862 11.54 38.9195 11.62C38.7862 11.6333 38.5462 11.6733 38.1995 11.74C37.8529 11.7933 37.4795 11.8533 37.0795 11.92C36.6929 11.9867 36.3595 12.0533 36.0795 12.12ZM46.9584 14.64C46.6918 14.64 46.4651 14.5667 46.2784 14.42C46.1051 14.2733 45.9051 14.08 45.6784 13.84C45.3718 13.8667 45.1118 13.78 44.8984 13.58C44.6984 13.38 44.5451 13.1133 44.4384 12.78C44.3451 12.4467 44.2984 12.1133 44.2984 11.78C44.2984 11.6067 44.3051 11.44 44.3184 11.28C44.3451 11.12 44.3851 10.9733 44.4384 10.84C45.8784 6.88 48.7051 3.73333 52.9184 1.4C53.1851 1.38667 53.4718 1.46 53.7784 1.62C54.0851 1.76667 54.3718 1.96667 54.6384 2.22C54.9051 2.46 55.1051 2.73333 55.2384 3.04C55.2918 2.88 55.3318 2.73333 55.3584 2.6C55.3984 2.45333 55.4251 2.31333 55.4384 2.18C55.4651 1.96667 55.4184 1.82667 55.2984 1.76C55.1918 1.68 55.0918 1.62667 54.9984 1.6C54.9051 1.56 54.8918 1.50667 54.9584 1.44C55.0118 1.4 55.0718 1.37333 55.1384 1.36C55.2184 1.34667 55.2984 1.34 55.3784 1.34C55.4718 1.34 55.5584 1.34667 55.6384 1.36C55.7318 1.36 55.8051 1.36 55.8584 1.36C56.1918 1.36 56.4918 1.46667 56.7584 1.68C57.0384 1.88 57.1518 2.18667 57.0984 2.6C57.0451 3.01333 56.8984 3.5 56.6584 4.06C56.4184 4.60667 56.1184 5.18 55.7584 5.78C55.3984 6.36667 55.0184 6.95333 54.6184 7.54C54.2184 8.12667 53.8318 8.66667 53.4584 9.16C53.0851 9.65333 52.7651 10.0733 52.4984 10.42C52.6851 10.2333 52.9451 9.95333 53.2784 9.58C53.6251 9.19333 53.9384 8.80667 54.2184 8.42C54.2984 8.3 54.4251 8.10667 54.5984 7.84C54.7851 7.56 54.9718 7.27333 55.1584 6.98C55.3584 6.68667 55.5251 6.44 55.6584 6.24C55.7918 6.02667 55.8518 5.93333 55.8384 5.96C55.5451 6.6 55.2051 7.22 54.8184 7.82C54.4318 8.42 54.0451 8.96 53.6584 9.44C53.2851 9.92 52.9651 10.3133 52.6984 10.62C52.4451 10.9267 52.2984 11.1 52.2584 11.14C51.6584 11.8333 51.0251 12.4467 50.3584 12.98C49.6918 13.5 49.0584 13.9067 48.4584 14.2C47.8584 14.4933 47.3584 14.64 46.9584 14.64ZM46.4984 13.88H46.5184C46.5451 13.88 46.5851 13.8733 46.6384 13.86C46.6918 13.8467 46.7584 13.8133 46.8384 13.76C47.0784 13.6267 47.3984 13.4133 47.7984 13.12C48.2118 12.8267 48.6118 12.5133 48.9984 12.18C49.4651 11.78 49.9851 11.2 50.5584 10.44C51.1318 9.68 51.7784 8.79333 52.4984 7.78C51.8584 8.67333 51.1718 9.53333 50.4384 10.36C49.7184 11.1867 49.0251 11.9 48.3584 12.5C47.7051 13.0867 47.1451 13.4933 46.6784 13.72C46.9451 13.56 47.3184 13.28 47.7984 12.88C48.2784 12.48 48.8184 11.9867 49.4184 11.4C50.0184 10.8 50.6184 10.1333 51.2184 9.4C51.4584 9.10667 51.7184 8.76 51.9984 8.36C52.2918 7.96 52.5851 7.55333 52.8784 7.14C53.1851 6.72667 53.4651 6.34667 53.7184 6L53.4984 6.34L54.2584 5.28L53.7184 6C53.9851 5.57333 54.2251 5.16667 54.4384 4.78C54.6651 4.38 54.8518 4 54.9984 3.64C54.9051 3.56 54.7984 3.47333 54.6784 3.38C54.5584 3.28667 54.4384 3.2 54.3184 3.12C54.1851 3.04 54.0318 3 53.8584 3C53.4051 3 52.7984 3.27333 52.0384 3.82C51.5451 4.19333 50.9984 4.65333 50.3984 5.2C49.8118 5.73333 49.2184 6.35333 48.6184 7.06C48.0318 7.76667 47.4851 8.56 46.9784 9.44C46.4718 10.32 46.0584 11.2933 45.7384 12.36C45.7118 12.4667 45.6984 12.56 45.6984 12.64C45.6984 12.8933 45.7718 13.1467 45.9184 13.4C46.0784 13.6533 46.2651 13.78 46.4784 13.78C46.5184 13.78 46.5784 13.7667 46.6584 13.74C46.5518 13.8067 46.4984 13.8533 46.4984 13.88ZM52.4984 7.78C52.5384 7.72667 52.5918 7.64667 52.6584 7.54C52.7384 7.42 52.7984 7.32667 52.8384 7.26C52.8918 7.18 52.8984 7.17333 52.8584 7.24L52.4984 7.78ZM57.0709 19.76C56.8976 19.7067 56.7043 19.62 56.4909 19.5C56.2776 19.3933 56.1709 19.2333 56.1709 19.02C56.1709 18.94 56.1909 18.86 56.2309 18.78L56.2709 18.7C56.0709 18.4867 55.9043 18.2533 55.7709 18C55.6376 17.76 55.5709 17.5333 55.5709 17.32C55.5709 17.2267 55.5776 17.16 55.5909 17.12C55.9509 16.5867 56.4643 16.0333 57.1309 15.46C57.7976 14.8867 58.5709 14.34 59.4509 13.82C60.3443 13.3 61.2843 12.86 62.2709 12.5C62.4843 12.22 62.6776 11.9467 62.8509 11.68C63.0243 11.4133 63.1976 11.1533 63.3709 10.9C63.3576 10.9 63.3843 10.8533 63.4509 10.76C63.5176 10.6533 63.5843 10.5467 63.6509 10.44C63.7176 10.3333 63.7443 10.2867 63.7309 10.3C63.7176 10.3 63.6643 10.3667 63.5709 10.5C63.4909 10.62 63.4043 10.74 63.3109 10.86C63.2309 10.98 63.1843 11.0467 63.1709 11.06C62.4776 11.62 61.7243 12.14 60.9109 12.62C60.1109 13.0867 59.3443 13.42 58.6109 13.62C58.2376 13.7133 57.8643 13.78 57.4909 13.82C57.1176 13.86 56.7776 13.88 56.4709 13.88C56.2176 13.88 56.0109 13.8733 55.8509 13.86C55.6909 13.8333 55.6109 13.8133 55.6109 13.8C55.6109 13.7467 55.9043 13.72 56.4909 13.72C55.6109 13.5333 54.9843 13.2133 54.6109 12.76C54.2509 12.2933 54.0709 11.7533 54.0709 11.14C54.0709 10.6333 54.1709 10.1 54.3709 9.54C54.5843 8.96667 54.8576 8.41333 55.1909 7.88C55.8976 6.74667 56.6576 5.84 57.4709 5.16C58.2976 4.48 59.2109 3.86 60.2109 3.3C59.9576 3.42 59.6976 3.54667 59.4309 3.68C59.1776 3.8 58.9376 3.92667 58.7109 4.06C58.6176 4.11333 58.5376 4.14 58.4709 4.14C58.4176 4.14 58.4376 4.11333 58.5309 4.06C58.9709 3.80667 59.4909 3.54 60.0909 3.26C60.6909 2.96667 61.2176 2.71333 61.6709 2.5C62.8176 1.95333 63.9776 1.52667 65.1509 1.22C66.3243 0.913332 67.3509 0.759999 68.2309 0.759999C68.7509 0.759999 69.1909 0.819999 69.5509 0.939999C69.7109 1.19333 69.8243 1.42667 69.8909 1.64C69.9576 1.84 69.9909 2.02 69.9909 2.18C69.9909 2.31333 69.9709 2.42667 69.9309 2.52C69.9043 2.61333 69.8776 2.69333 69.8509 2.76C69.9176 2.72 69.9776 2.65333 70.0309 2.56C70.0976 2.46667 70.1509 2.37333 70.1909 2.28C70.2309 2.18667 70.2509 2.10667 70.2509 2.04C70.2643 1.97333 70.2843 1.90667 70.3109 1.84C70.3376 1.8 70.4109 1.82667 70.5309 1.92C70.6509 2.01333 70.7643 2.13333 70.8709 2.28C70.9909 2.42667 71.0443 2.56 71.0309 2.68C71.0176 2.90667 70.9043 3.18 70.6909 3.5C70.4909 3.82 70.2376 4.13333 69.9309 4.44C69.6376 4.73333 69.3376 4.98 69.0309 5.18C68.7243 5.36667 68.4576 5.44667 68.2309 5.42C67.8976 5.51333 67.5976 5.59333 67.3309 5.66C67.0776 5.71333 66.8909 5.74 66.7709 5.74C66.6643 5.74 66.6109 5.71333 66.6109 5.66C66.6109 5.58 66.7976 5.40667 67.1709 5.14C67.7309 4.76667 68.2109 4.38667 68.6109 4C69.1043 3.52 69.3509 3.14667 69.3509 2.88C69.3509 2.70667 69.2709 2.58 69.1109 2.5C68.9643 2.42 68.7576 2.38 68.4909 2.38C68.4376 2.38 68.3709 2.38667 68.2909 2.4C68.2243 2.4 68.1509 2.40667 68.0709 2.42C67.2976 2.52667 66.4643 2.7 65.5709 2.94C64.6909 3.18 63.7909 3.5 62.8709 3.9C61.9509 4.28667 61.0643 4.76 60.2109 5.32C59.3709 5.86667 58.6043 6.50667 57.9109 7.24C57.2176 7.96 56.6509 8.78667 56.2109 9.72C56.0376 10.08 55.9043 10.4267 55.8109 10.76C55.7176 11.0933 55.6709 11.3933 55.6709 11.66C55.6709 12.0333 55.7709 12.3333 55.9709 12.56C56.1843 12.7733 56.5243 12.88 56.9909 12.88C57.3509 12.88 57.7909 12.8133 58.3109 12.68C58.8443 12.5333 59.4709 12.2933 60.1909 11.96C60.7243 11.72 61.2643 11.3933 61.8109 10.98C62.3576 10.5667 62.8709 10.1333 63.3509 9.68C63.8309 9.22667 64.2443 8.81333 64.5909 8.44C64.9509 8.05333 65.1976 7.77333 65.3309 7.6C65.4776 7.56 65.6709 7.58667 65.9109 7.68C66.1643 7.77333 66.3843 7.88667 66.5709 8.02C66.7709 8.15333 66.8509 8.26 66.8109 8.34C66.8109 8.34 66.7043 8.52 66.4909 8.88C66.2909 9.24 65.9976 9.72667 65.6109 10.34C65.2376 10.94 64.7909 11.6 64.2709 12.32L64.7909 12.28H64.8509C65.0376 12.28 65.1309 12.34 65.1309 12.46C65.1309 12.5667 65.0443 12.64 64.8709 12.68C64.7109 12.7333 64.5309 12.8 64.3309 12.88C64.1309 12.9467 63.9309 13.0133 63.7309 13.08L63.5109 13.34L63.6109 13.2L63.6309 13.16L62.2509 14.74C62.0509 14.9667 61.7976 15.24 61.4909 15.56C61.1843 15.88 60.8576 16.2067 60.5109 16.54C60.1776 16.8733 59.8643 17.18 59.5709 17.46C59.2776 17.74 59.0443 17.9667 58.8709 18.14C58.6976 18.3133 58.6243 18.3933 58.6509 18.38C59.3576 17.8467 60.0376 17.2467 60.6909 16.58C61.3443 15.9267 61.9909 15.2 62.6309 14.4C62.7243 14.2667 62.8376 14.1267 62.9709 13.98C63.1043 13.8333 63.2309 13.6867 63.3509 13.54C63.2043 13.7533 63.0176 14.0133 62.7909 14.32C62.5643 14.6267 62.2976 14.9667 61.9909 15.34C61.8043 15.5667 61.5509 15.8333 61.2309 16.14C60.9109 16.4467 60.5709 16.7533 60.2109 17.06C59.8643 17.38 59.5443 17.66 59.2509 17.9C58.9709 18.14 58.7709 18.3 58.6509 18.38C58.7443 18.38 58.8176 18.4 58.8709 18.44C58.9243 18.4667 58.8776 18.5533 58.7309 18.7C58.5843 18.8467 58.3909 19.0067 58.1509 19.18C57.9243 19.3533 57.7043 19.5 57.4909 19.62C57.2909 19.74 57.1509 19.7867 57.0709 19.76ZM60.4309 3.26C61.2976 2.86 62.2176 2.5 63.1909 2.18C64.1776 1.86 65.1243 1.61333 66.0309 1.44C66.9376 1.25333 67.7043 1.16 68.3309 1.16C68.5176 1.16 68.6109 1.14667 68.6109 1.12C68.6109 1.09333 68.5643 1.07333 68.4709 1.06C68.3909 1.03333 68.3043 1.02667 68.2109 1.04C67.8243 1.06667 67.2976 1.12667 66.6309 1.22C65.9776 1.3 65.2576 1.43333 64.4709 1.62C63.6843 1.80667 62.8976 2.07333 62.1109 2.42C61.8576 2.54 61.5776 2.67333 61.2709 2.82C60.9643 2.96667 60.6843 3.11333 60.4309 3.26ZM57.0909 18.88C57.4509 18.52 57.8709 18.0733 58.3509 17.54C58.8309 17.02 59.3176 16.48 59.8109 15.92C60.3043 15.36 60.7443 14.86 61.1309 14.42C61.3043 14.2333 61.4776 14.04 61.6509 13.84C61.8376 13.64 61.9976 13.4333 62.1309 13.22C61.8909 13.5133 61.7309 13.6933 61.6509 13.76C61.5709 13.8133 61.5243 13.84 61.5109 13.84C61.2843 13.9333 60.9776 14.1067 60.5909 14.36C60.2176 14.6133 59.8176 14.9133 59.3909 15.26C58.9643 15.62 58.5643 15.9933 58.1909 16.38C57.8176 16.78 57.5109 17.16 57.2709 17.52C57.0309 17.88 56.9109 18.1933 56.9109 18.46C56.9109 18.62 56.9709 18.76 57.0909 18.88Z" fill="black"/>
</svg>
